<?xml version="1.0" encoding="UTF-8" standalone="no"?>
<!DOCTYPE svg PUBLIC "-//W3C//DTD SVG 1.1//EN" "http://www.w3.org/Graphics/SVG/1.1/DTD/svg11.dtd">
<svg width="100%" height="100%" viewBox="0 0 800 600" version="1.1" xmlns="http://www.w3.org/2000/svg" xmlns:xlink="http://www.w3.org/1999/xlink" xml:space="preserve" xmlns:serif="http://www.serif.com/" style="fill-rule:evenodd;clip-rule:evenodd;stroke-linejoin:round;stroke-miterlimit:2;">
    <g transform="matrix(3.7301,0,0,3.70028,-3815.06,-1297.75)">
        <g transform="matrix(1,0,0,1,33.0966,-58.1344)">
            <g transform="matrix(2.16038,0,0,2.16038,-2212.47,-273.474)">
                <path d="M1482.22,362.861L1482.22,391.018L1581.49,391.018L1581.49,349.058L1540.82,315.836L1482.22,362.861Z" style="fill:rgb(24,24,24);"/>
            </g>
            <g transform="matrix(3.20229,0,0,3.20229,-2524.92,-3529.5)">
                <g transform="matrix(9.28319,0,0,9.28319,1133.31,1270.14)">
                    <path d="M0.093,-0.36L0.485,-0.36L0.485,-0.386L0.093,-0.386L0.093,-0.686L0.525,-0.686L0.525,-0.712L0.065,-0.712L0.065,-0L0.532,-0L0.532,-0.026L0.093,-0.026L0.093,-0.36Z" style="fill:white;fill-rule:nonzero;"/>
                </g>
                <g transform="matrix(9.28319,0,0,9.28319,1138.53,1270.14)">
                    <path d="M0.24,0.012C0.356,0.012 0.436,-0.034 0.436,-0.133C0.436,-0.208 0.388,-0.252 0.281,-0.269L0.221,-0.279C0.121,-0.296 0.076,-0.327 0.076,-0.395C0.076,-0.464 0.133,-0.504 0.229,-0.504C0.334,-0.504 0.389,-0.463 0.396,-0.381L0.424,-0.381C0.417,-0.479 0.352,-0.528 0.23,-0.528C0.115,-0.528 0.048,-0.478 0.048,-0.394C0.048,-0.314 0.1,-0.274 0.211,-0.255L0.27,-0.245C0.369,-0.229 0.408,-0.196 0.408,-0.132C0.408,-0.051 0.344,-0.012 0.24,-0.012C0.124,-0.012 0.067,-0.065 0.06,-0.156L0.032,-0.156C0.037,-0.055 0.107,0.012 0.24,0.012Z" style="fill:white;fill-rule:nonzero;"/>
                </g>
                <g transform="matrix(9.28319,0,0,9.28319,1142.71,1270.14)">
                    <path d="M0.266,-0.516L0.129,-0.516L0.129,-0.662L0.102,-0.662L0.102,-0.516L0.011,-0.516L0.011,-0.492L0.102,-0.492L0.102,-0.102C0.102,-0.033 0.14,0.002 0.216,0.002C0.229,0.002 0.246,0.001 0.266,-0L0.266,-0.024C0.247,-0.023 0.231,-0.022 0.218,-0.022C0.159,-0.022 0.129,-0.049 0.129,-0.104L0.129,-0.492L0.266,-0.492L0.266,-0.516Z" style="fill:white;fill-rule:nonzero;"/>
                </g>
                <g transform="matrix(9.28319,0,0,9.28319,1145.34,1270.14)">
                    <path d="M0.428,-0.23C0.425,-0.085 0.349,-0.013 0.248,-0.013C0.145,-0.013 0.088,-0.073 0.088,-0.189L0.088,-0.516L0.06,-0.516L0.06,-0.186C0.06,-0.059 0.127,0.012 0.244,0.012C0.335,0.012 0.402,-0.04 0.429,-0.127L0.429,-0L0.455,-0L0.455,-0.516L0.428,-0.516L0.428,-0.23Z" style="fill:white;fill-rule:nonzero;"/>
                </g>
                <g transform="matrix(9.28319,0,0,9.28319,1150.12,1270.14)">
                    <path d="M0.466,-0.383C0.433,-0.474 0.362,-0.528 0.265,-0.528C0.196,-0.528 0.141,-0.503 0.1,-0.454C0.059,-0.404 0.039,-0.339 0.039,-0.258C0.039,-0.177 0.059,-0.112 0.1,-0.063C0.141,-0.013 0.196,0.012 0.265,0.012C0.364,0.012 0.434,-0.043 0.467,-0.136L0.467,-0L0.493,-0L0.493,-0.712L0.466,-0.712L0.466,-0.383ZM0.267,-0.013C0.206,-0.013 0.157,-0.036 0.121,-0.081C0.085,-0.126 0.067,-0.184 0.067,-0.257C0.067,-0.33 0.085,-0.39 0.121,-0.435C0.157,-0.48 0.206,-0.503 0.267,-0.503C0.329,-0.503 0.378,-0.481 0.414,-0.436C0.449,-0.391 0.467,-0.331 0.467,-0.258C0.467,-0.185 0.449,-0.126 0.414,-0.081C0.378,-0.036 0.329,-0.013 0.267,-0.013Z" style="fill:white;fill-rule:nonzero;"/>
                </g>
                <g transform="matrix(9.28319,0,0,9.28319,1155.25,1270.14)">
                    <path d="M0.088,-0.594L0.088,-0.683L0.059,-0.683L0.059,-0.594L0.088,-0.594ZM0.088,-0L0.088,-0.516L0.06,-0.516L0.06,-0L0.088,-0Z" style="fill:white;fill-rule:nonzero;"/>
                </g>
                <g transform="matrix(9.28319,0,0,9.28319,1156.62,1270.14)">
                    <path d="M0.435,-0.063C0.476,-0.113 0.497,-0.178 0.497,-0.258C0.497,-0.338 0.476,-0.403 0.435,-0.453C0.393,-0.503 0.337,-0.528 0.268,-0.528C0.199,-0.528 0.143,-0.503 0.102,-0.453C0.06,-0.403 0.039,-0.338 0.039,-0.258C0.039,-0.178 0.06,-0.113 0.102,-0.063C0.143,-0.013 0.199,0.012 0.268,0.012C0.337,0.012 0.393,-0.013 0.435,-0.063ZM0.122,-0.081C0.085,-0.126 0.067,-0.185 0.067,-0.258C0.067,-0.331 0.085,-0.39 0.122,-0.435C0.159,-0.48 0.207,-0.503 0.268,-0.503C0.329,-0.503 0.377,-0.48 0.414,-0.435C0.451,-0.39 0.469,-0.331 0.469,-0.258C0.469,-0.185 0.451,-0.126 0.414,-0.081C0.377,-0.036 0.329,-0.013 0.268,-0.013C0.207,-0.013 0.159,-0.036 0.122,-0.081Z" style="fill:white;fill-rule:nonzero;"/>
                </g>
            </g>
            <g transform="matrix(3.05094,0,0,3.05094,-2341.05,-3309.52)">
                <g transform="matrix(9.74372,0,0,9.74372,1133.31,1270.14)">
                    <path d="M0.681,-0L0.393,-0.712L0.299,-0.712L0.015,-0L0.103,-0L0.185,-0.207L0.509,-0.207L0.592,-0L0.681,-0ZM0.218,-0.291C0.261,-0.399 0.303,-0.509 0.345,-0.621C0.4,-0.481 0.443,-0.371 0.475,-0.292L0.479,-0.283L0.215,-0.283L0.218,-0.291Z" style="fill:white;fill-rule:nonzero;"/>
                </g>
                <g transform="matrix(9.74372,0,0,9.74372,1139.89,1270.14)">
                    <path d="M0.588,-0.206C0.583,-0.28 0.551,-0.327 0.49,-0.346C0.561,-0.369 0.607,-0.429 0.607,-0.518C0.607,-0.642 0.51,-0.712 0.366,-0.712L0.065,-0.712L0.065,-0L0.149,-0L0.149,-0.304L0.381,-0.304C0.468,-0.304 0.504,-0.268 0.508,-0.171L0.511,-0.095C0.512,-0.052 0.52,-0.021 0.534,-0L0.621,-0C0.606,-0.022 0.598,-0.052 0.595,-0.091L0.588,-0.206ZM0.149,-0.38L0.149,-0.636L0.366,-0.636C0.462,-0.636 0.52,-0.596 0.52,-0.513C0.52,-0.426 0.463,-0.38 0.376,-0.38L0.149,-0.38Z" style="fill:white;fill-rule:nonzero;"/>
                </g>
                <g transform="matrix(9.74372,0,0,9.74372,1145.94,1270.14)">
                    <path d="M0.681,-0L0.393,-0.712L0.299,-0.712L0.015,-0L0.103,-0L0.185,-0.207L0.509,-0.207L0.592,-0L0.681,-0ZM0.218,-0.291C0.261,-0.399 0.303,-0.509 0.345,-0.621C0.4,-0.481 0.443,-0.371 0.475,-0.292L0.479,-0.283L0.215,-0.283L0.218,-0.291Z" style="fill:white;fill-rule:nonzero;"/>
                </g>
                <g transform="matrix(9.74372,0,0,9.74372,1152.53,1270.14)">
                    <path d="M0.588,-0.206C0.583,-0.28 0.551,-0.327 0.49,-0.346C0.561,-0.369 0.607,-0.429 0.607,-0.518C0.607,-0.642 0.51,-0.712 0.366,-0.712L0.065,-0.712L0.065,-0L0.149,-0L0.149,-0.304L0.381,-0.304C0.468,-0.304 0.504,-0.268 0.508,-0.171L0.511,-0.095C0.512,-0.052 0.52,-0.021 0.534,-0L0.621,-0C0.606,-0.022 0.598,-0.052 0.595,-0.091L0.588,-0.206ZM0.149,-0.38L0.149,-0.636L0.366,-0.636C0.462,-0.636 0.52,-0.596 0.52,-0.513C0.52,-0.426 0.463,-0.38 0.376,-0.38L0.149,-0.38Z" style="fill:white;fill-rule:nonzero;"/>
                </g>
                <g transform="matrix(9.74372,0,0,9.74372,1158.82,1270.14)">
                    <rect x="0.045" y="-0.1" width="0.101" height="0.1" style="fill:white;fill-rule:nonzero;"/>
                </g>
            </g>
        </g>
        <g transform="matrix(-0.418365,5.12349e-17,5.12349e-17,0.418365,1546.1,178.358)">
            <path d="M1152.43,786.989C1152.54,787.301 1152.43,788.442 1152.43,788.856C1152.43,789.271 1152.75,789.583 1152.64,789.895C1152.54,790.205 1151.81,791.555 1150.88,792.28C1149.94,793.007 1147.56,795.082 1146.73,795.497C1145.9,795.912 1145.38,795.705 1145.38,795.705L1144.86,793.94C1144.86,793.94 1145.59,794.045 1146.21,793.318C1146.83,792.592 1146.21,789.895 1145.9,789.479C1145.59,789.064 1146.73,787.716 1147.14,786.782C1147.56,785.849 1146.62,780.038 1146.73,778.481C1146.83,776.926 1147.04,769.974 1146.94,768.521C1146.83,767.069 1145.73,751.506 1145.63,750.987C1145.52,750.469 1144.73,749.439 1144.73,749.439L1144.73,748.082C1144.73,747.667 1145.1,744.04 1145.1,744.04C1146.45,745.601 1147.37,746.526 1147.79,746.733C1148.2,746.941 1149.9,746.941 1150.52,747.045C1151.15,747.148 1150.49,748.187 1150.39,749.224C1150.29,750.262 1151.15,754.308 1151.36,755.138C1151.57,755.968 1151.9,756.59 1151.59,757.628C1151.27,758.665 1151.08,767.483 1150.97,768.418C1150.87,769.352 1151.5,772.152 1151.6,773.605C1151.7,775.058 1154.3,779.208 1154.4,780.038C1154.51,780.868 1152.33,782.424 1151.81,783.773C1151.29,785.122 1152.33,786.678 1152.43,786.989ZM1118.47,661.223C1118.16,661.433 1117.16,660.542 1116.48,659.757C1115.8,658.972 1116.09,656.838 1116.22,656.93C1116.59,657.191 1120.41,657.924 1120.41,657.924C1120.41,657.924 1118.79,661.014 1118.47,661.223ZM1170.97,779.262C1171.19,777.609 1170.33,764.1 1169.25,758.565C1168.17,753.033 1167.31,750.374 1167.31,749.512C1167.31,748.649 1166.3,744.481 1166.09,743.906C1165.87,743.331 1164.79,740.816 1164.65,740.313C1164.51,739.811 1164.15,739.091 1164.15,738.589C1164.15,738.085 1163.21,734.636 1162.57,733.63C1161.92,732.624 1160.05,729.893 1160.12,728.527C1160.19,727.162 1159.33,720.12 1159.12,719.186C1158.9,718.251 1159.26,716.239 1158.97,715.306C1158.68,714.37 1157.97,712.934 1157.89,712.215C1157.82,711.496 1157.32,708.55 1157.32,707.688C1157.32,706.825 1156.96,706.682 1157.32,706.106C1157.68,705.532 1157.97,705.101 1157.97,704.598C1157.97,704.095 1157.32,703.376 1157.75,703.017C1158.18,702.657 1159.69,702.226 1160.27,700.717C1160.84,699.208 1160.63,696.836 1160.84,696.621C1161.06,696.405 1162.35,695.327 1162.35,694.824C1162.35,694.321 1161.27,693.1 1161.06,692.669C1160.84,692.237 1160.84,690.01 1160.84,689.004C1160.84,687.997 1159.76,684.261 1160.05,683.47C1160.34,682.68 1161.06,680.093 1161.13,677.721C1161.2,675.35 1162.06,668.954 1162.13,665.721C1162.21,662.486 1162.13,658.318 1162.85,655.946C1163.57,653.575 1165.15,646.245 1165.08,644.664C1165.01,643.084 1163.79,640.137 1163.86,639.347C1163.93,638.557 1163.64,632.232 1162.35,630.364C1161.06,628.495 1159.47,625.908 1155.74,623.968L1152,622.028C1152,622.028 1151,620.734 1149.63,620.806L1148.26,620.878C1148.26,620.878 1145.03,619.226 1144.82,615.848C1144.6,612.471 1145.61,610.89 1146.47,609.236C1147.33,607.584 1149.06,605.644 1148.91,603.775C1148.77,601.906 1148.7,599.535 1147.4,597.451C1146.11,595.367 1146.4,594.648 1145.96,594.002C1145.53,593.354 1140.22,591.702 1139.71,591.343C1139.21,590.983 1137.43,590.84 1137.43,590.84L1136.43,591.271L1136.43,590.768L1135.63,591.559L1135.55,590.696L1134.83,591.846C1134.83,591.846 1134.4,591.199 1134.4,590.912C1134.4,590.624 1133.46,590.84 1132.96,591.199C1132.46,591.559 1131.67,592.134 1131.31,592.349C1130.95,592.564 1131.02,591.63 1130.3,592.134C1129.58,592.637 1129.72,592.205 1129.15,592.924C1128.57,593.643 1127.86,593.642 1127.5,593.786C1127.14,593.93 1126.2,594.505 1126.42,593.93C1126.63,593.354 1125.48,593.858 1125.34,594.505C1125.2,595.151 1125.13,595.224 1125.13,595.654C1125.13,596.086 1124.48,594.792 1124.26,595.079C1124.05,595.367 1123.4,595.583 1123.83,596.014C1124.26,596.445 1124.48,596.732 1124.12,597.092C1123.76,597.451 1122.75,597.451 1123.4,597.738C1124.05,598.026 1124.78,597.817 1124.7,598.245C1124.7,598.245 1122.74,603.593 1122.67,604.303C1122.61,605.014 1122.98,605.686 1123.01,606.105C1123.05,606.525 1122.73,606.313 1122.57,606.377C1122.41,606.441 1121.43,606.804 1121.4,607.32C1121.37,607.836 1121.46,609.034 1121.46,609.034C1121.46,609.034 1120.33,609.908 1120.49,610.715C1120.65,611.521 1121.52,611.587 1122.07,611.522C1122.62,611.458 1122.91,611.49 1122.94,611.62C1122.97,611.749 1122.62,613.202 1122.78,613.589C1122.94,613.977 1123.29,614.17 1123.42,614.525C1123.55,614.881 1123.2,615.106 1123.33,615.365C1123.45,615.623 1124.04,615.881 1124.04,616.462C1124.04,617.043 1123.49,617.689 1123.75,618.205C1124,618.723 1124.62,619.433 1126.36,619.271C1128.1,619.109 1129.3,619.077 1129.75,619.303C1130.2,619.529 1130.65,620.207 1130.85,620.659C1131.04,621.11 1130.91,621.725 1131.43,622.306C1131.94,622.887 1132.11,623.888 1132.17,625.018C1132.24,626.146 1132.36,627.793 1132.24,628.213C1132.11,628.633 1131.27,628.504 1130.91,629.148C1130.56,629.795 1130.14,630.925 1130.17,631.021C1130.2,631.119 1129.94,631.894 1129.33,632.894C1128.72,633.895 1127.26,636.897 1126.65,638.124C1126.65,638.124 1122.04,646.174 1121.53,647.754C1121.53,647.754 1118.73,647.251 1118.15,646.677C1117.58,646.102 1117.44,644.664 1116.93,644.593C1116.43,644.521 1115.64,646.029 1115.64,646.029C1115.64,646.029 1109.67,641.574 1108.74,641.646L1107.81,641.718C1107.81,641.718 1106.44,641.718 1106.37,642.149C1106.3,642.58 1105.94,643.084 1105.94,643.084L1104.14,644.162L1104.21,645.239C1104.21,645.239 1105.94,646.174 1106.66,646.604C1107.38,647.036 1108.31,647.97 1108.52,648.401C1108.52,648.401 1107.16,648.401 1107.23,649.048C1107.3,649.694 1108.31,650.341 1108.31,650.341C1108.31,650.341 1107.66,653.504 1108.31,654.581C1108.31,654.581 1106.3,654.869 1106.58,655.3C1106.58,655.3 1106.51,655.804 1108.31,655.804C1108.31,655.804 1109.89,659.252 1110.61,660.187C1111.33,661.121 1111.33,661.911 1111.33,662.63C1111.33,663.349 1110.61,663.852 1110.39,665.146C1110.18,666.438 1109.96,670.104 1111.04,671.182C1112.12,672.26 1114.49,674.344 1114.85,674.344C1115.21,674.344 1116.5,674.452 1117.22,674.955C1117.94,675.458 1118.08,675.352 1118.3,675.352L1118.73,675.352C1118.73,675.352 1117.08,693.711 1115.64,698.022C1115.64,698.022 1115.35,698.364 1119.38,700.232C1119.38,700.232 1121.03,700.654 1120.96,701.732C1120.88,702.811 1122.18,703.093 1122.18,703.093C1122.18,703.093 1123.26,718.541 1124.12,722.278C1124.98,726.015 1125.34,727.811 1125.41,729.391C1125.48,730.973 1126.27,738.229 1126.42,740.673C1126.56,743.116 1127.21,746.709 1127.57,747.787C1127.93,748.865 1127.64,749.871 1128.07,750.446C1128.5,751.021 1128.86,752.745 1129.65,754.111C1130.44,755.476 1130.87,756.194 1131.09,756.985C1131.09,756.985 1131.45,760.363 1130.51,762.806C1129.58,765.249 1129.44,766.543 1129.29,767.836C1129.15,769.13 1128.86,775.598 1128.65,777.106C1128.43,778.615 1128.14,780.843 1128.65,781.562C1129.15,782.28 1129.44,782.353 1129.65,783.143C1129.87,783.934 1130.08,785.73 1130.23,785.945C1130.37,786.161 1128.79,786.88 1126.99,789.18C1125.2,791.479 1121.89,793.348 1119.74,794.281C1117.58,795.216 1115.5,795.646 1115.21,795.862C1114.92,796.078 1110.61,795.432 1109.82,795.646C1109.03,795.862 1107.81,796.797 1107.88,797.3C1107.95,797.803 1106.94,798.154 1109.53,798.801C1112.12,799.448 1113.27,799.8 1114.78,799.8L1128.65,799.8L1134.4,798.479L1134.75,799.542L1142.59,799.283C1142.59,799.283 1142.95,799.98 1144.1,800.052C1145.25,800.124 1155.09,800.473 1165.8,799.826L1169.68,799.39L1169.61,796.728L1169.46,796.151L1170.04,795.791C1170.04,795.791 1169.68,793.635 1168.53,792.27C1168.53,792.27 1168.24,791.91 1169.97,791.982C1169.97,791.982 1170.47,791.335 1169.97,790.041C1169.97,790.041 1170.47,789.683 1170.4,788.029C1170.33,786.376 1169.46,785.227 1169.97,783.934C1170.47,782.64 1170.76,780.915 1170.97,779.262Z" style="fill:white;fill-rule:nonzero;"/>
        </g>
    </g>
</svg>
